<?xml version="1.0" standalone="no"?>
<!DOCTYPE svg PUBLIC "-//W3C//DTD SVG 20010904//EN"
 "http://www.w3.org/TR/2001/REC-SVG-20010904/DTD/svg10.dtd">
<svg version="1.0" xmlns="http://www.w3.org/2000/svg"
 width="260.000000pt" height="260.000000pt" viewBox="0 0 260.000000 260.000000"
 preserveAspectRatio="xMidYMid meet">
<metadata>
Created by potrace 1.14, written by Peter Selinger 2001-2017
</metadata>
<g transform="translate(0.000000,260.000000) scale(0.100000,-0.100000)"
fill="#000000" stroke="none">
<path d="M130 1320 l0 -970 335 0 335 0 0 138 0 138 -85 38 c-46 21 -89 44
-94 50 -8 9 14 68 75 207 48 107 90 198 94 202 4 5 32 -5 61 -22 123 -68 340
-119 463 -108 74 7 96 15 96 33 0 23 -48 40 -215 79 -265 62 -375 111 -459
208 -105 119 -125 305 -50 463 30 64 114 158 173 194 22 14 39 28 38 31 -1 3
-40 70 -87 147 l-85 141 -297 1 -298 0 0 -970z"/>
<path d="M1760 2171 c-38 -65 -70 -121 -70 -124 0 -3 25 -15 55 -26 83 -31
155 -70 155 -83 0 -14 -149 -378 -160 -391 -3 -4 -40 8 -81 27 -70 32 -205 74
-213 65 -13 -15 -56 -90 -56 -98 0 -5 30 -14 68 -21 156 -29 292 -88 377 -162
89 -78 137 -233 115 -368 -15 -93 -59 -176 -130 -246 l-60 -59 0 -167 0 -168
335 0 335 0 0 970 0 970 -300 0 -299 0 -71 -119z"/>
<path d="M1252 563 l-172 -3 16 -25 c16 -25 17 -25 183 -25 l167 0 17 30 18
30 -28 -2 c-15 -1 -106 -4 -201 -5z"/>
</g>
</svg>
